<mxfile host="65bd71144e">
    <diagram id="58SO3tEJWvLtK6XkHxIX" name="Page-1">
        <mxGraphModel dx="1315" dy="1118" grid="1" gridSize="10" guides="1" tooltips="1" connect="1" arrows="1" fold="1" page="1" pageScale="1" pageWidth="850" pageHeight="1100" math="0" shadow="0">
            <root>
                <mxCell id="0"/>
                <mxCell id="1" parent="0"/>
                <mxCell id="434" value="" style="rounded=0;whiteSpace=wrap;html=1;" vertex="1" parent="1">
                    <mxGeometry x="290" y="280" width="250" height="280" as="geometry"/>
                </mxCell>
                <mxCell id="435" value="TTB0" style="rounded=0;whiteSpace=wrap;html=1;" vertex="1" parent="1">
                    <mxGeometry x="350" y="300" width="80" height="30" as="geometry"/>
                </mxCell>
                <mxCell id="436" value="TTB1" style="rounded=0;whiteSpace=wrap;html=1;" vertex="1" parent="1">
                    <mxGeometry x="430" y="300" width="80" height="30" as="geometry"/>
                </mxCell>
                <UserObject label="&lt;b&gt;0&lt;/b&gt;" placeholders="1" name="Variable" id="437">
                    <mxCell style="text;html=1;strokeColor=none;fillColor=none;align=center;verticalAlign=middle;whiteSpace=wrap;overflow=hidden;" vertex="1" parent="1">
                        <mxGeometry x="310" y="305" width="30" height="20" as="geometry"/>
                    </mxCell>
                </UserObject>
                <mxCell id="438" value="TTB0" style="rounded=0;whiteSpace=wrap;html=1;" vertex="1" parent="1">
                    <mxGeometry x="350" y="330" width="80" height="30" as="geometry"/>
                </mxCell>
                <mxCell id="439" value="TTB1" style="rounded=0;whiteSpace=wrap;html=1;" vertex="1" parent="1">
                    <mxGeometry x="430" y="330" width="80" height="30" as="geometry"/>
                </mxCell>
                <UserObject label="&lt;b&gt;1&lt;/b&gt;" placeholders="1" name="Variable" id="440">
                    <mxCell style="text;html=1;strokeColor=none;fillColor=none;align=center;verticalAlign=middle;whiteSpace=wrap;overflow=hidden;" vertex="1" parent="1">
                        <mxGeometry x="310" y="335" width="30" height="20" as="geometry"/>
                    </mxCell>
                </UserObject>
                <mxCell id="441" value="TTB0" style="rounded=0;whiteSpace=wrap;html=1;" vertex="1" parent="1">
                    <mxGeometry x="350" y="360" width="80" height="30" as="geometry"/>
                </mxCell>
                <mxCell id="442" value="TTB1" style="rounded=0;whiteSpace=wrap;html=1;" vertex="1" parent="1">
                    <mxGeometry x="430" y="360" width="80" height="30" as="geometry"/>
                </mxCell>
                <UserObject label="&lt;b&gt;2&lt;/b&gt;" placeholders="1" name="Variable" id="443">
                    <mxCell style="text;html=1;strokeColor=none;fillColor=none;align=center;verticalAlign=middle;whiteSpace=wrap;overflow=hidden;" vertex="1" parent="1">
                        <mxGeometry x="310" y="365" width="30" height="20" as="geometry"/>
                    </mxCell>
                </UserObject>
                <mxCell id="444" value="TTB0" style="rounded=0;whiteSpace=wrap;html=1;" vertex="1" parent="1">
                    <mxGeometry x="350" y="390" width="80" height="30" as="geometry"/>
                </mxCell>
                <mxCell id="445" value="TTB1" style="rounded=0;whiteSpace=wrap;html=1;" vertex="1" parent="1">
                    <mxGeometry x="430" y="390" width="80" height="30" as="geometry"/>
                </mxCell>
                <UserObject label="&lt;b&gt;3&lt;/b&gt;" placeholders="1" name="Variable" id="446">
                    <mxCell style="text;html=1;strokeColor=none;fillColor=none;align=center;verticalAlign=middle;whiteSpace=wrap;overflow=hidden;" vertex="1" parent="1">
                        <mxGeometry x="310" y="395" width="30" height="20" as="geometry"/>
                    </mxCell>
                </UserObject>
                <UserObject label="&lt;b&gt;...&lt;/b&gt;" placeholders="1" name="Variable" id="447">
                    <mxCell style="text;html=1;strokeColor=none;fillColor=none;align=center;verticalAlign=middle;whiteSpace=wrap;overflow=hidden;horizontal=0;" vertex="1" parent="1">
                        <mxGeometry x="320" y="440" width="190" height="20" as="geometry"/>
                    </mxCell>
                </UserObject>
                <mxCell id="448" value="TTB0" style="rounded=0;whiteSpace=wrap;html=1;" vertex="1" parent="1">
                    <mxGeometry x="350" y="470" width="80" height="30" as="geometry"/>
                </mxCell>
                <mxCell id="449" value="TTB1" style="rounded=0;whiteSpace=wrap;html=1;" vertex="1" parent="1">
                    <mxGeometry x="430" y="470" width="80" height="30" as="geometry"/>
                </mxCell>
                <UserObject label="&lt;b&gt;62&lt;/b&gt;" placeholders="1" name="Variable" id="450">
                    <mxCell style="text;html=1;strokeColor=none;fillColor=none;align=center;verticalAlign=middle;whiteSpace=wrap;overflow=hidden;" vertex="1" parent="1">
                        <mxGeometry x="310" y="475" width="30" height="20" as="geometry"/>
                    </mxCell>
                </UserObject>
                <mxCell id="451" value="TTB0" style="rounded=0;whiteSpace=wrap;html=1;" vertex="1" parent="1">
                    <mxGeometry x="350" y="500" width="80" height="30" as="geometry"/>
                </mxCell>
                <mxCell id="452" value="TTB1" style="rounded=0;whiteSpace=wrap;html=1;" vertex="1" parent="1">
                    <mxGeometry x="430" y="500" width="80" height="30" as="geometry"/>
                </mxCell>
                <UserObject label="&lt;b&gt;63&lt;/b&gt;" placeholders="1" name="Variable" id="453">
                    <mxCell style="text;html=1;strokeColor=none;fillColor=none;align=center;verticalAlign=middle;whiteSpace=wrap;overflow=hidden;" vertex="1" parent="1">
                        <mxGeometry x="310" y="505" width="30" height="20" as="geometry"/>
                    </mxCell>
                </UserObject>
                <mxCell id="455" value="" style="edgeStyle=none;html=1;" edge="1" parent="1" source="454" target="446">
                    <mxGeometry relative="1" as="geometry"/>
                </mxCell>
                <mxCell id="454" value="&lt;font style=&quot;font-size: 16px;&quot;&gt;Context ID&lt;/font&gt;" style="text;strokeColor=none;fillColor=none;html=1;fontSize=16;fontStyle=1;verticalAlign=middle;align=center;" vertex="1" parent="1">
                    <mxGeometry x="170" y="392.5" width="90" height="25" as="geometry"/>
                </mxCell>
                <mxCell id="458" style="edgeStyle=none;html=1;entryX=1;entryY=0.5;entryDx=0;entryDy=0;fontSize=16;" edge="1" parent="1" source="457" target="452">
                    <mxGeometry relative="1" as="geometry"/>
                </mxCell>
                <mxCell id="457" value="&lt;font style=&quot;font-size: 16px;&quot;&gt;Firmware Part&lt;br&gt;Shared&lt;br&gt;（all same）&lt;br&gt;&lt;/font&gt;" style="text;strokeColor=none;fillColor=none;html=1;fontSize=16;fontStyle=1;verticalAlign=middle;align=center;" vertex="1" parent="1">
                    <mxGeometry x="560" y="502.5" width="102.5" height="25" as="geometry"/>
                </mxCell>
                <mxCell id="461" value="" style="edgeStyle=none;html=1;fontSize=16;" edge="1" parent="1" source="460" target="451">
                    <mxGeometry relative="1" as="geometry"/>
                </mxCell>
                <mxCell id="460" value="&lt;font style=&quot;font-size: 16px;&quot;&gt;User Part&lt;br&gt;base for each context&lt;br&gt;&lt;/font&gt;" style="text;strokeColor=none;fillColor=none;html=1;fontSize=16;fontStyle=1;verticalAlign=middle;align=center;" vertex="1" parent="1">
                    <mxGeometry x="338.75" y="590" width="102.5" height="70" as="geometry"/>
                </mxCell>
            </root>
        </mxGraphModel>
    </diagram>
</mxfile>